# xmcd
#
# Track frame offsets:
#	150
#	32388
#	74357
#	133269
#	168197
#	181564
#	231750
#	275937
#	294370
#	335005
#
# Disc length: 4727 seconds
#
# Revision: 1
# Processed by: cddbd v1.5.2PL0 Copyright (c) Steve Scherf et al.
# Submitted via: audiograbber 1.83.01
#
DISCID=8f12750a
DTITLE=Grateful Dead - 78-12-13 Curtis Hixon Convention Hall, Tampa FL
DYEAR=1900
DGENRE=
TTITLE0=I Need A Miracle
TTITLE1=Ship Of Fools
TTITLE2=Playing In The Band
TTITLE3=Drums
TTITLE4=Space
TTITLE5=Shakedown Street
TTITLE6=Black Peter
TTITLE7=Playing In The Band
TTITLE8=Sugar Magnolia
TTITLE9=Johnny B Goode
EXTD=
EXTT0=
EXTT1=
EXTT2=
EXTT3=
EXTT4=
EXTT5=
EXTT6=
EXTT7=
EXTT8=
EXTT9=
PLAYORDER=
